# xmcd CD database file
#
# Track frame offsets:
#	150
#	26213
#	53362
#	169576
#	218020
#	252235
#	275678
#
# Disc length: 4442 seconds
#
# Revision: 0
# Processed by: cddbd v1.5.2PL0 Copyright (c) Steve Scherf et al.
# Submitted via: CDex 1.70beta3
#
DISCID=5b115807
DTITLE=Herbie Mann - Live at the Whisky 1969 - 2
DYEAR=1969
DGENRE=Jazz
TTITLE0=Black Woman
TTITLE1=All Blues
TTITLE2=If I Were a Carpenter
TTITLE3=Philly Dog
TTITLE4=Portrait of Linda in three Colors, All black
TTITLE5=Come Home Baby/Battle Hymn of the Republic/Come Home Baby
TTITLE6=Chain of Fools
EXTD=YEAR: 1969
EXTT0=
EXTT1=
EXTT2=
EXTT3=
EXTT4=
EXTT5=
EXTT6=
PLAYORDER=
